<?xml version="1.0" encoding="UTF-8" standalone="no"?>
<svg
   xmlns:dc="http://purl.org/dc/elements/1.1/"
   xmlns:cc="http://creativecommons.org/ns#"
   xmlns:rdf="http://www.w3.org/1999/02/22-rdf-syntax-ns#"
   xmlns:svg="http://www.w3.org/2000/svg"
   xmlns="http://www.w3.org/2000/svg"
   xmlns:sodipodi="http://sodipodi.sourceforge.net/DTD/sodipodi-0.dtd"
   xmlns:inkscape="http://www.inkscape.org/namespaces/inkscape"
   version="1.1"
   id="Layer_1"
   x="0px"
   y="0px"
   width="1090"
   height="1020.0891"
   viewBox="0 0 1090 1020.0891"
   enable-background="new 0 0 230 216"
   xml:space="preserve"
   inkscape:version="1.0.1 (3bc2e813f5, 2020-09-07)"
   sodipodi:docname="Canal 2 (Las Estrellas 2017).svg"><style
   id="style852"></style><metadata
   id="metadata3043"><rdf:RDF><cc:Work
       rdf:about=""><dc:format>image/svg+xml</dc:format><dc:type
         rdf:resource="http://purl.org/dc/dcmitype/StillImage" /><dc:title></dc:title></cc:Work></rdf:RDF></metadata><defs
   id="defs3041" /><sodipodi:namedview
   pagecolor="#ffffff"
   bordercolor="#666666"
   borderopacity="1"
   objecttolerance="10"
   gridtolerance="10"
   guidetolerance="10"
   inkscape:pageopacity="0"
   inkscape:pageshadow="2"
   inkscape:window-width="1920"
   inkscape:window-height="1017"
   id="namedview3039"
   showgrid="false"
   fit-margin-top="0"
   fit-margin-left="0"
   fit-margin-right="0"
   fit-margin-bottom="0"
   inkscape:zoom="0.38628982"
   inkscape:cx="862.58354"
   inkscape:cy="589.99125"
   inkscape:window-x="-8"
   inkscape:window-y="-8"
   inkscape:window-maximized="1"
   inkscape:current-layer="g3069"
   inkscape:document-rotation="0" />



















<g
   id="g3069"
   transform="matrix(2.3201103,0,0,2.3201103,-0.16936805,-0.57074712)"><g
     id="g3055"
     transform="matrix(2.0064256,0,0,2,4.2366709,4.0641399)"><path
       d="m 0.073,215.243 v -34.992 l 6.222,-0.866 v 35.858 z"
       id="path2999"
       inkscape:connector-curvature="0"
       style="fill:#1d0d0d" /><path
       d="m 31.854,215.243 h -5.1 l -0.461,-1.685 c -2.244,1.48 -4.896,2.194 -7.395,2.194 -4.542,0 -6.479,-3.11 -6.479,-7.396 0,-5.05 2.194,-6.988 7.244,-6.988 h 5.968 v -2.604 c 0,-2.753 -0.765,-3.722 -4.745,-3.722 -2.244,0 -4.691,0.306 -6.887,0.765 l -0.765,-4.744 c 2.348,-0.713 5.764,-1.172 8.521,-1.172 7.802,0 10.098,2.754 10.098,8.977 v 16.375 z m -6.222,-9.386 h -4.591 c -2.042,0 -2.602,0.561 -2.602,2.449 0,1.733 0.56,2.499 2.5,2.499 1.836,0 3.521,-0.612 4.694,-1.276 v -3.672 z"
       id="path3001"
       inkscape:connector-curvature="0"
       style="fill:#1d0d0d" /><path
       d="m 44.271,215.753 c -2.653,0 -6.275,-0.611 -8.571,-1.429 l 0.868,-4.744 c 2.091,0.613 4.846,1.072 7.396,1.072 2.755,0 3.163,-0.612 3.163,-2.5 0,-1.53 -0.306,-2.295 -4.336,-3.265 -6.069,-1.479 -6.783,-3.008 -6.783,-7.804 0,-4.998 2.192,-7.191 9.282,-7.191 2.296,0 5.307,0.305 7.449,0.865 l -0.614,4.949 c -1.886,-0.357 -4.897,-0.715 -6.835,-0.715 -2.703,0 -3.163,0.611 -3.163,2.142 0,1.99 0.152,2.144 3.52,3.011 6.938,1.836 7.601,2.754 7.601,7.855 0,4.796 -1.478,7.754 -8.977,7.754 z"
       id="path3003"
       inkscape:connector-curvature="0"
       style="fill:#1d0d0d" /><path
       d="m 77.896,210.652 c 2.397,0 4.898,-0.357 7.602,-1.173 l 0.969,4.692 c -2.807,1.071 -6.173,1.581 -9.132,1.581 -7.804,0 -10.506,-3.62 -10.506,-9.591 v -6.579 c 0,-5.255 2.346,-9.69 10.302,-9.69 7.958,0 9.744,4.641 9.744,9.997 v 5.304 H 73.052 v 1.277 c 0,3.009 1.07,4.182 4.844,4.182 z m -4.844,-10.457 h 7.905 v -1.224 c 0,-2.348 -0.714,-3.979 -3.773,-3.979 -3.062,0 -4.132,1.632 -4.132,3.979 z"
       id="path3005"
       inkscape:connector-curvature="0"
       style="fill:#1d0d0d" /><path
       d="m 97.628,215.753 c -2.653,0 -6.275,-0.611 -8.57,-1.429 l 0.868,-4.744 c 2.093,0.613 4.846,1.072 7.396,1.072 2.757,0 3.165,-0.612 3.165,-2.5 0,-1.53 -0.307,-2.295 -4.337,-3.265 -6.068,-1.479 -6.783,-3.008 -6.783,-7.804 0,-4.998 2.192,-7.191 9.283,-7.191 2.296,0 5.306,0.305 7.448,0.865 l -0.612,4.949 c -1.888,-0.357 -4.898,-0.715 -6.836,-0.715 -2.704,0 -3.161,0.611 -3.161,2.142 0,1.99 0.152,2.144 3.519,3.011 6.937,1.836 7.602,2.754 7.602,7.855 -0.003,4.796 -1.484,7.754 -8.982,7.754 z"
       id="path3007"
       inkscape:connector-curvature="0"
       style="fill:#1d0d0d" /><path
       d="m 124.412,214.783 c -1.326,0.563 -3.878,0.97 -5.458,0.97 -4.541,0 -6.835,-2.142 -6.835,-6.579 V 195.35 h -3.725 v -4.95 h 3.725 v -6.172 l 6.223,-0.866 v 7.038 h 6.376 l -0.407,4.949 h -5.969 v 13.008 c 0,1.326 0.612,2.193 2.244,2.193 0.917,0 2.04,-0.204 3.111,-0.511 z"
       id="path3009"
       inkscape:connector-curvature="0"
       style="fill:#1d0d0d" /><path
       d="m 140.227,195.857 c -2.396,1.072 -4.336,2.194 -6.58,3.622 v 16.019 h -6.224 v -24.844 h 5.255 l 0.407,2.756 c 1.378,-0.919 4.335,-2.653 6.528,-3.265 z"
       id="path3011"
       inkscape:connector-curvature="0"
       style="fill:#1d0d0d" /><path
       d="m 153.507,210.652 c 2.397,0 4.897,-0.357 7.601,-1.173 l 0.969,4.692 c -2.806,1.071 -6.172,1.581 -9.131,1.581 -7.805,0 -10.51,-3.62 -10.51,-9.591 v -6.579 c 0,-5.255 2.348,-9.69 10.306,-9.69 7.958,0 9.742,4.641 9.742,9.997 v 5.304 H 148.66 v 1.277 c 0,3.009 1.07,4.182 4.847,4.182 z m -4.847,-10.457 h 7.907 v -1.224 c 0,-2.348 -0.716,-3.979 -3.775,-3.979 -3.062,0 -4.132,1.632 -4.132,3.979 z"
       id="path3013"
       inkscape:connector-curvature="0"
       style="fill:#1d0d0d" /><path
       d="m 165.746,215.243 v -34.992 l 6.224,-0.866 v 35.858 z"
       id="path3015"
       inkscape:connector-curvature="0"
       style="fill:#1d0d0d" /><path
       d="m 178.256,215.243 v -34.992 l 6.223,-0.866 v 35.858 z"
       id="path3017"
       inkscape:connector-curvature="0"
       style="fill:#1d0d0d" /><path
       d="m 208.705,215.243 h -5.102 l -0.459,-1.685 c -2.244,1.48 -4.896,2.194 -7.396,2.194 -4.539,0 -6.477,-3.11 -6.477,-7.396 0,-5.05 2.191,-6.988 7.242,-6.988 h 5.967 v -2.604 c 0,-2.753 -0.765,-3.722 -4.742,-3.722 -2.246,0 -4.693,0.306 -6.887,0.765 l -0.766,-4.744 c 2.346,-0.713 5.764,-1.172 8.52,-1.172 7.805,0 10.1,2.754 10.1,8.977 z m -6.225,-9.386 h -4.59 c -2.041,0 -2.602,0.561 -2.602,2.449 0,1.733 0.561,2.499 2.5,2.499 1.835,0 3.52,-0.612 4.691,-1.276 v -3.672 z"
       id="path3019"
       inkscape:connector-curvature="0"
       style="fill:#1d0d0d" /><path
       d="m 220.947,215.751 c -2.65,0 -6.272,-0.611 -8.568,-1.428 l 0.867,-4.744 c 2.092,0.612 4.847,1.071 7.396,1.071 2.754,0 3.162,-0.611 3.162,-2.499 0,-1.53 -0.305,-2.296 -4.335,-3.265 -6.07,-1.479 -6.785,-3.01 -6.785,-7.805 0,-4.998 2.194,-7.192 9.284,-7.192 2.296,0 5.305,0.306 7.448,0.867 l -0.612,4.948 c -1.887,-0.357 -4.897,-0.715 -6.836,-0.715 -2.703,0 -3.162,0.611 -3.162,2.143 0,1.989 0.153,2.143 3.52,3.01 6.938,1.837 7.601,2.754 7.601,7.856 0,4.794 -1.479,7.753 -8.98,7.753 z"
       id="path3021"
       inkscape:connector-curvature="0"
       style="fill:#1d0d0d" /></g><g
     id="g3045"
     transform="matrix(2,0,0,2,4.2371399,4.0641399)"><path
       d="m 111.125,101.104 c -0.276,0.476 -0.474,1.314 -0.439,1.863 l 4.365,69.273 c 0.035,0.549 0.273,0.998 0.531,0.998 0.257,0 0.671,0 0.919,0 0.248,0 0.479,-0.449 0.512,-0.998 l 4.212,-69.273 c 0.033,-0.549 -0.159,-1.391 -0.428,-1.871 l -4.259,-7.609 c -0.269,-0.48 -0.714,-0.483 -0.99,-0.008 z"
       id="path3023"
       inkscape:connector-curvature="0"
       style="fill:#4066b0;fill-opacity:1" /><path
       d="m 122.262,90.358 c -0.529,-0.149 -0.848,0.164 -0.706,0.695 l 2.266,8.518 c 0.142,0.531 0.595,1.264 1.007,1.627 l 52.07,45.902 c 0.412,0.363 0.898,0.512 1.08,0.33 0.182,-0.183 0.474,-0.476 0.649,-0.651 0.175,-0.175 0.021,-0.656 -0.344,-1.068 L 132.279,93.744 c -0.365,-0.412 -1.097,-0.871 -1.626,-1.02 z"
       id="path3025"
       inkscape:connector-curvature="0"
       style="fill:#d0d0d0;fill-opacity:1" /><path
       d="m 178.298,23.682 c 0.363,-0.413 0.513,-0.899 0.331,-1.081 -0.182,-0.182 -0.474,-0.475 -0.649,-0.65 -0.176,-0.176 -0.656,-0.021 -1.068,0.344 l -51.964,46.004 c -0.412,0.365 -0.871,1.096 -1.021,1.625 l -2.369,8.394 c -0.149,0.529 0.163,0.847 0.695,0.706 l 8.518,-2.263 c 0.532,-0.141 1.265,-0.594 1.628,-1.007 z"
       id="path3027"
       inkscape:connector-curvature="0"
       style="fill:#e8168f;fill-opacity:1" /><path
       d="m 133.836,80.235 c -0.549,-0.033 -1.391,0.159 -1.87,0.428 l -7.607,4.259 c -0.479,0.269 -0.482,0.715 -0.007,0.991 l 7.621,4.423 c 0.476,0.276 1.314,0.474 1.863,0.439 l 69.275,-4.365 c 0.549,-0.035 0.998,-0.273 0.998,-0.531 0,-0.258 0,-0.671 0,-0.919 0,-0.248 -0.449,-0.479 -0.998,-0.512 z"
       id="path3029"
       inkscape:connector-curvature="0"
       style="fill:#fecc11;fill-opacity:1" /><path
       d="m 120.411,68.609 c 0.276,-0.476 0.474,-1.314 0.439,-1.863 L 116.724,1.244 c -0.034,-0.549 -0.263,-0.998 -0.507,-0.998 -0.244,0 -0.636,0 -0.872,0 -0.236,0 -0.455,0.449 -0.488,0.998 l -3.981,65.502 c -0.033,0.549 0.159,1.391 0.428,1.871 l 3.981,7.114 c 0.269,0.48 0.714,0.483 0.99,0.008 z"
       id="path3031"
       inkscape:connector-curvature="0"
       style="fill:#ed242c;fill-opacity:1" /><path
       d="m 109.449,79.009 c 0.529,0.149 0.847,-0.164 0.706,-0.695 l -2.118,-7.965 c -0.141,-0.531 -0.594,-1.264 -1.007,-1.627 L 57.794,25.321 c -0.413,-0.364 -0.891,-0.52 -1.063,-0.347 -0.172,0.172 -0.449,0.45 -0.615,0.616 -0.166,0.166 -0.003,0.639 0.361,1.051 l 43.5,49.136 c 0.365,0.412 1.096,0.871 1.625,1.02 z"
       id="path3033"
       inkscape:connector-curvature="0"
       style="fill:#8863aa;fill-opacity:1" /><path
       d="m 101.493,92.459 c -0.531,0.141 -1.264,0.594 -1.627,1.007 l -43.402,49.235 c -0.364,0.412 -0.52,0.892 -0.348,1.064 0.172,0.173 0.449,0.45 0.616,0.616 0.167,0.166 0.64,0.004 1.051,-0.361 l 49.134,-43.499 c 0.412,-0.365 0.871,-1.096 1.02,-1.625 l 2.215,-7.847 c 0.149,-0.529 -0.164,-0.847 -0.695,-0.706 z"
       id="path3035"
       inkscape:connector-curvature="0"
       style="fill:#5ac9dd;fill-opacity:1" /><path
       d="m 107.339,86.081 c 0.48,-0.269 0.483,-0.714 0.007,-0.991 l -7.126,-4.133 c -0.476,-0.276 -1.314,-0.474 -1.863,-0.439 l -65.504,4.125 c -0.549,0.035 -0.998,0.262 -0.998,0.506 0,0.244 0,0.636 0,0.871 0,0.235 0.449,0.455 0.998,0.488 l 65.504,3.987 c 0.549,0.033 1.391,-0.16 1.871,-0.428 z"
       id="path3037"
       inkscape:connector-curvature="0"
       style="fill:#42b861;fill-opacity:1" /></g></g>
</svg>
