<?xml version="1.0" encoding="utf-8"?>
<!-- Generator: Adobe Illustrator 16.0.3, SVG Export Plug-In . SVG Version: 6.00 Build 0)  -->
<!DOCTYPE svg PUBLIC "-//W3C//DTD SVG 1.1//EN" "http://www.w3.org/Graphics/SVG/1.1/DTD/svg11.dtd">
<svg version="1.1"
	 id="svg2423" inkscape:version="0.92.3 (2405546, 2018-03-11)" sodipodi:docname="MegaPlusLogo.svg" xmlns:dc="http://purl.org/dc/elements/1.1/" xmlns:cc="http://creativecommons.org/ns#" xmlns:rdf="http://www.w3.org/1999/02/22-rdf-syntax-ns#" xmlns:svg="http://www.w3.org/2000/svg" xmlns:sodipodi="http://sodipodi.sourceforge.net/DTD/sodipodi-0.dtd" xmlns:inkscape="http://www.inkscape.org/namespaces/inkscape"
	 xmlns="http://www.w3.org/2000/svg" xmlns:xlink="http://www.w3.org/1999/xlink" x="0px" y="0px" width="710.616px"
	 height="505.145px" viewBox="7.555 5.964 710.616 505.145" enable-background="new 7.555 5.964 710.616 505.145"
	 xml:space="preserve">
<sodipodi:namedview  id="base" inkscape:pageopacity="0.0" inkscape:pageshadow="2" inkscape:document-units="mm" inkscape:current-layer="layer1" fit-margin-right="0" fit-margin-bottom="0" inkscape:window-width="1366" inkscape:window-height="705" inkscape:window-x="-8" inkscape:window-y="-8" inkscape:window-maximized="1" showgrid="false" fit-margin-top="0" bordercolor="#666666" borderopacity="1.0" fit-margin-left="0" inkscape:zoom="2.8" inkscape:cx="171.10553" inkscape:cy="-8.9347741" pagecolor="#ffffff">
	</sodipodi:namedview>
<g id="layer1" transform="translate(289.48485,-49.79551)" inkscape:groupmode="layer" inkscape:label="Layer 1">
	<g>
		<path id="Path_223_8_" inkscape:connector-curvature="0" fill="#3F42C3" d="M321.527,488.474
			c-33.843,14.771-73.285-0.704-88.091-34.557L122.687,216.454c-14.771-33.854,0.692-73.267,34.557-88.026
			c33.844-14.781,73.267,0.697,88.017,34.556l110.764,237.711C370.61,434.471,355.199,473.666,321.527,488.474 M100.184,488.474
			c-33.847,14.76-73.254-0.704-88.035-34.557l-110.83-237.464c-6.914-16-7.386-34.079-1.274-50.406
			c6.304-16.814,19.135-30.378,35.555-37.586c7.778-3.466,16.102-5.379,24.592-5.643h4.602c8.449,0.264,16.822,2.177,24.579,5.643
			c16.439,7.208,29.245,20.781,35.577,37.608L134.202,400.44c14.936,33.673-0.312,73.081-33.946,87.99
			c-0.051,0.013-0.069,0.013-0.095,0.044 M-86.895,453.923c-14.705,33.853-54.06,49.386-87.899,34.696
			c-33.865-14.719-49.379-54.069-34.711-87.925l0,0l61.197-131.304l73.707,158.167L-86.895,453.923z M417.479,373.309
			L417.479,373.309L306.664,135.85c-29.779-67.73-108.843-98.506-176.548-68.73c-23.022,10.113-42.66,26.476-56.814,47.229v0.258
			C49.162,79.184,9.657,57.365-33.17,55.777h-9.458c-51.128,2.166-96.616,33.22-117.197,80.073l-110.809,237.459
			c-29.666,67.658,1.114,146.564,68.746,176.249c59.021,25.91,128.125,6.023,164.361-47.262
			C3.939,563.38,87.047,579.274,148.15,537.822c14.049-9.556,26.159-21.683,35.689-35.796
			c41.465,61.263,124.747,77.292,185.979,35.796C423.295,501.648,443.307,432.471,417.479,373.309"/>
	</g>
</g>
</svg>
