<?xml version="1.0" encoding="UTF-8" standalone="no"?>
<svg
   xmlns:dc="http://purl.org/dc/elements/1.1/"
   xmlns:cc="http://creativecommons.org/ns#"
   xmlns:rdf="http://www.w3.org/1999/02/22-rdf-syntax-ns#"
   xmlns:svg="http://www.w3.org/2000/svg"
   xmlns="http://www.w3.org/2000/svg"
   xmlns:xlink="http://www.w3.org/1999/xlink"
   width="259.45651mm"
   height="165.41832mm"
   viewBox="0 0 259.45652 165.41832"
   version="1.1"
   id="svg8">
  <defs
     id="defs2"><linearGradient
   id="linearGradient1178">
  <stop
     style="stop-color:#aeb0b4;stop-opacity:1"
     offset="0"
     id="stop1174" />
  <stop
     style="stop-color:#e6e6e6;stop-opacity:1"
     offset="0.50718993"
     id="stop1182" />
  <stop
     style="stop-color:#b1b2b6;stop-opacity:1"
     offset="1"
     id="stop1176" />
</linearGradient>
<linearGradient
   xlink:href="#linearGradient1178"
   id="linearGradient1180"
   x1="41.428574"
   y1="1080"
   x2="991.42859"
   y2="1080"
   gradientUnits="userSpaceOnUse"
   gradientTransform="matrix(0.19135973,0,0,0.18293294,25.892112,66.878929)" />
<style
   type="text/css"
   id="style6"><![CDATA[
    .fil0 {fill:#1F1A17}
    .fil4 {fill:white}
    .fil2 {fill:#E51E2A}
    .fil3 {fill:white}
    .fil1 {fill:url(#id0)}
   ]]></style>
<linearGradient
   id="id0"
   gradientUnits="userSpaceOnUse"
   x1="10.2224"
   y1="228.21001"
   x2="214.13699"
   y2="228.21001"
   gradientTransform="translate(82.741733,34.42837)">
  <stop
     offset="0"
     style="stop-color:#A7B6BF"
     id="stop9" />
  <stop
     offset="0.0705882"
     style="stop-color:#AAB8C1"
     id="stop11" />
  <stop
     offset="0.211765"
     style="stop-color:white"
     id="stop13" />
  <stop
     offset="0.368627"
     style="stop-color:#A7B6BF"
     id="stop15" />
  <stop
     offset="0.490196"
     style="stop-color:#A7B6BF"
     id="stop17" />
  <stop
     offset="0.611765"
     style="stop-color:#A7B6BF"
     id="stop19" />
  <stop
     offset="0.768627"
     style="stop-color:white"
     id="stop21" />
  <stop
     offset="0.921569"
     style="stop-color:#AEBCC5"
     id="stop23" />
  <stop
     offset="1"
     style="stop-color:#A7B6BF"
     id="stop25" />
</linearGradient>
<style
   type="text/css"
   id="style6-1"><![CDATA[
    .fil0 {fill:#1F1A17}
    .fil4 {fill:white}
    .fil2 {fill:#E51E2A}
    .fil3 {fill:white}
    .fil1 {fill:url(#id0)}
   ]]></style>
<style
   type="text/css"
   id="style6-8"><![CDATA[
    .fil3 {fill:#1F1A17}
    .fil0 {fill:black}
    .fil1 {fill:white}
    .fil2 {fill:#DE3E3F}
   ]]></style>

	
	
	
	
	
	
<style
   type="text/css"
   id="style6-16"><![CDATA[
    .fil0 {fill:#1F1A17}
    .fil4 {fill:white}
    .fil2 {fill:#E51E2A}
    .fil3 {fill:white}
    .fil1 {fill:url(#id0)}
   ]]></style>
<style
   type="text/css"
   id="style6-1-3"><![CDATA[
    .fil0 {fill:#1F1A17}
    .fil4 {fill:white}
    .fil2 {fill:#E51E2A}
    .fil3 {fill:white}
    .fil1 {fill:url(#id0)}
   ]]></style>

	
	
</defs>
  <metadata
     id="metadata5">
    <rdf:RDF>
      <cc:Work
         rdf:about="">
        <dc:format>image/svg+xml</dc:format>
        <dc:type
           rdf:resource="http://purl.org/dc/dcmitype/StillImage" />
        <dc:title></dc:title>
      </cc:Work>
    </rdf:RDF>
  </metadata>
  <g
     id="layer1"
     transform="translate(16.257196,183.08311)">
    <g
       id="g3292"
       transform="matrix(0.55627886,0,0,0.5443998,-33.97801,-196.0646)"
       style="fill:#e9521f;fill-opacity:1">
		<path
   class="st0"
   d="m 385.4,277.6 7.9,25.1 8.5,-25.1 h 7.9 c 0,0 -14.5,38.9 -16.3,42.9 -1.7,3.6 -2.3,4.3 -4.8,6 -1.5,1 -5.4,1.1 -8.4,1.2 h -2.5 v -6.4 c 1.5,0.1 5.5,0.2 7.3,-0.7 2,-1.5 4.3,-7.4 4.6,-8.5 l 0.1,-0.2 0.1,-0.2 -12.3,-34 h 7.9 z"
   id="path3272"
   style="fill:#e9521f;fill-opacity:1" />

		<path
   class="st0"
   d="m 348,288.3 c -0.7,-2.2 -1.7,-4.2 -3,-5.9 -1.3,-1.7 -3,-3 -4.9,-4 -2,-1 -4.3,-1.5 -6.9,-1.5 -2.4,0 -4.6,0.5 -6.5,1.4 -2,0.9 -3.7,2.2 -5.1,3.8 -1.5,1.6 -2.6,3.5 -3.4,5.7 -0.8,2.2 -1.2,4.5 -1.2,7 v 0.1 c 0,2.6 0.4,5.1 1.3,7.2 0.9,2.2 2.1,4.1 3.6,5.6 1.5,1.6 3.3,2.8 5.4,3.7 2.1,0.8 4.3,1.3 6.7,1.3 3,0 5.7,-0.6 7.8,-1.8 2.2,-1.2 4.1,-2.7 5.7,-4.7 l -4.5,-4.1 c -1.3,1.3 -2.7,2.4 -4.1,3.1 -1.4,0.7 -3,1 -4.9,1 -2.5,0 -4.5,-0.8 -6.3,-2.2 -1.7,-1.5 -2.8,-3.7 -3.2,-6.5 h 24.3 c 0,-0.4 0.1,-0.8 0.1,-1.1 0,-0.4 0,-0.7 0,-1.1 0.1,-2.4 -0.2,-4.8 -0.9,-7 z m -23.4,3.2 c 0.3,-2.7 1.3,-4 2.8,-5.7 1.6,-1.7 3.5,-2.5 5.8,-2.5 1.2,0 2.4,0.2 3.4,0.7 1,0.5 1.8,1.1 2.5,1.9 0.7,0.8 1.3,1.8 1.7,2.9 0.4,1.1 0.7,1.5 0.8,2.7 z"
   id="path3274"
   style="fill:#e9521f;fill-opacity:1" />

		<path
   class="st0"
   d="m 280.8,287.8 c -0.9,-2.1 -2.1,-4 -3.6,-5.6 -1.6,-1.6 -3.4,-2.9 -5.5,-3.8 -2.2,-0.9 -4.5,-1.4 -7.1,-1.4 -2.5,0 -4.9,0.5 -7,1.4 -2.2,1 -4,2.2 -5.6,3.9 -1.6,1.6 -2.8,3.5 -3.7,5.7 -0.9,2.2 -1.3,4.5 -1.3,7 v 0.1 c 0,2.4 0.4,4.7 1.3,6.9 0.9,2.2 2.1,4 3.7,5.6 1.6,1.6 3.4,2.9 5.6,3.8 2.1,0.9 4.5,1.4 7,1.4 2.5,0 4.9,-0.5 7.1,-1.4 2.2,-1 4,-2.3 5.6,-3.9 1.5,-1.6 2.8,-3.5 3.7,-5.7 0.9,-2.2 1.3,-4.4 1.3,-6.9 v -0.1 c -0.1,-2.6 -0.6,-4.9 -1.5,-7 z m -6.2,7.2 c 0,1.5 -0.2,2.9 -0.7,4.2 -0.5,1.3 -1.1,2.5 -2,3.5 -0.9,1 -1.9,1.8 -3.1,2.4 -1.2,0.6 -2.6,0.9 -4.2,0.9 -1.4,0 -2.8,-0.3 -4,-0.9 -1.2,-0.6 -2.3,-1.4 -3.2,-2.4 -0.9,-1 -1.6,-2.2 -2.1,-3.5 -0.5,-1.3 -0.8,-2.7 -0.8,-4.2 v -0.1 c 0,-1.5 0.2,-2.9 0.7,-4.3 0.5,-1.3 1.1,-2.5 2,-3.4 0.9,-1 1.9,-1.8 3.2,-2.4 1.2,-0.6 2.6,-0.8 4.1,-0.8 1.5,0 2.9,0.3 4.1,0.8 1.2,0.6 2.3,1.4 3.2,2.4 0.9,1 1.6,2.2 2.1,3.5 0.5,1.3 0.8,2.8 0.8,4.3 v 0 z"
   id="path3276"
   style="fill:#e9521f;fill-opacity:1" />

		<path
   class="st0"
   d="m 231.7,276.9 c 5.6,0 9.3,1.9 12.2,4.9 l 0.9,1 -4.7,5.3 c -2.3,-2.5 -4.7,-4.3 -8.5,-4.3 -5.5,0 -9.5,4.9 -9.5,11 0,6.2 4.1,11.1 9.9,11.1 3.1,0 5.5,-1.3 7.7,-3.4 l 0.9,-0.9 4.6,4.7 c -3.2,3.8 -7.1,6.4 -13.5,6.4 -9.8,0 -17.1,-8 -17.1,-17.8 0,-9.8 7.3,-18 17.1,-18 z"
   id="path3278"
   style="fill:#e9521f;fill-opacity:1" />

		<path
   class="st0"
   d="m 198.3,277.1 c 2.1,0 4.2,0.4 6.3,1 1.6,0.5 3.1,1.2 4.5,2 l 1.3,0.9 -3,5.6 c -1.6,-1 -3.2,-1.8 -4.8,-2.4 -1.6,-0.6 -3.1,-0.9 -4.5,-0.9 -1.5,0 -2.6,0.3 -3.4,1 -0.6,0.5 -1,1.1 -1.1,1.8 l -0.1,0.7 v 0.1 c 0,0.6 0.2,1.1 0.6,1.6 0.4,0.5 1,0.9 1.7,1.2 0.7,0.4 1.5,0.7 2.4,1 0.9,0.3 1.8,0.6 2.8,1 1.2,0.4 2.4,0.8 3.6,1.4 1.2,0.5 2.3,1.2 3.3,1.9 1,0.8 1.8,1.7 2.4,2.8 0.5,0.8 0.8,1.7 0.9,2.8 l 0.1,1.1 v 0.1 c 0,1.8 -0.3,3.4 -0.9,4.7 -0.6,1.3 -1.5,2.5 -2.6,3.3 -1.1,0.9 -2.4,1.6 -3.9,2 -1.5,0.4 -3.1,0.7 -4.8,0.7 -2.4,0 -4.8,-0.4 -7.2,-1.3 -1.8,-0.7 -3.6,-1.5 -5.2,-2.6 l -1.6,-1.2 3.4,-5.3 c 1.8,1.4 3.6,2.4 5.5,3.1 1.8,0.7 3.6,1.1 5.3,1.1 1.6,0 2.9,-0.4 3.8,-1 0.7,-0.5 1.1,-1.1 1.3,-1.9 l 0.1,-0.8 v -0.1 c 0,-0.6 -0.2,-1.2 -0.6,-1.7 -0.4,-0.5 -0.9,-0.9 -1.6,-1.3 -0.7,-0.4 -1.5,-0.7 -2.4,-1 -0.9,-0.3 -1.8,-0.6 -2.8,-0.9 -1.2,-0.3 -2.4,-0.8 -3.6,-1.2 -1.2,-0.5 -2.3,-1.1 -3.3,-1.8 -1,-0.8 -1.8,-1.7 -2.4,-2.8 -0.5,-0.8 -0.8,-1.8 -0.9,-3 l -0.1,-1.2 v -0.1 c 0,-1.6 0.3,-3.1 0.9,-4.4 0.6,-1.3 1.4,-2.4 2.5,-3.3 1.1,-0.9 2.3,-1.6 3.7,-2.1 1.3,-0.4 2.8,-0.6 4.4,-0.6 z"
   id="path3280"
   style="fill:#e9521f;fill-opacity:1" />

		<polygon
   class="st0"
   points="296,312.2 282.5,277.6 290.6,277.6 299.5,302.8 308.4,277.6 316.4,277.6 302.9,312.2 "
   id="polygon3282"
   style="fill:#e9521f;fill-opacity:1" />

		<path
   class="st0"
   d="m 119.8,275.7 c 9.6,0 17.4,8.1 17.4,18.1 0,10 -7.8,18.1 -17.4,18.1 -9.6,0 -17.4,-8.1 -17.4,-18.1 0,-9.9 7.8,-18.1 17.4,-18.1 z"
   id="path3284"
   style="fill:#e9521f;fill-opacity:1" />

		<rect
   x="172.3"
   y="277.60001"
   class="st0"
   width="7.5999999"
   height="34.299999"
   id="rect3286"
   style="fill:#e9521f;fill-opacity:1" />

		<path
   class="st0"
   d="m 362.2,277.6 v 5.7 c 2.5,-3.2 6.4,-4.6 9.1,-5.3 l 1.1,-0.2 2.6,6.6 c -3.3,0.5 -9.6,2.3 -11.9,8.5 -0.5,1.2 -0.7,2.7 -0.8,4.3 v 1.7 13 h -7.6 v -34.3 z"
   id="path3288"
   style="fill:#e9521f;fill-opacity:1" />

		<path
   class="st0"
   d="m 144.6,266.2 c 13.8,0 23.2,9.8 23.2,22.6 0,12.8 -9.5,22.8 -23.2,22.8 h -13.3 c 2.7,-1.8 4.9,-4.3 6.5,-7.3 h 6.8 c 9.2,0 15.2,-6.4 15.2,-15.4 0,-8.9 -6,-15.5 -15.2,-15.5 H 136 v 6.7 c -1.3,-1.6 -2.8,-3.1 -4.4,-4.3 -1,-0.8 -2.1,-1.4 -3.3,-1.9 v -7.8 h 16.3 z"
   id="path3290"
   style="fill:#e9521f;fill-opacity:1" />

	</g>
    <g
       id="g3263"
       transform="matrix(1.9709867,0,0,1.9709867,15.78552,17.152267)"
       style="fill:#e9521f;fill-opacity:1">
      <path
         id="rect3220"
         style="fill:#e9521f;fill-opacity:1;fill-rule:evenodd;stroke:none;stroke-width:37.7953;stroke-linecap:round;stroke-linejoin:round;stroke-miterlimit:4;stroke-dasharray:none;stroke-opacity:1;paint-order:stroke fill markers;stop-color:#000000"
         d="m 372.25,923 v 203.75 H 406 v -48.791 c 0,-10.9584 7.4e-4,-13.9579 0.30469,-20.1992 0.30395,-6.2414 0.91043,-15.7243 4.7207,-22.6758 3.81027,-6.9515 10.82294,-11.371 17.2168,-13.4922 6.39385,-2.1212 12.16927,-1.9443 17.11914,-0.7949 4.94986,1.1493 9.07296,3.2704 12.13672,7.2187 3.06375,3.9484 5.06735,9.7244 5.98047,15.3223 0.91311,5.5979 0.73681,11.0187 0.64843,19.1211 -0.0884,8.1024 -0.0879,18.8858 -0.0879,26.3105 0,7.4247 -10e-4,11.4895 1.17774,16.4395 1.17878,4.9499 3.53573,10.7838 9.25195,15.5859 5.71622,4.8021 14.79174,8.5723 24.07227,8.6309 7.57554,0.048 15.25445,-2.3726 21.00586,-4.5313 v -27.2793 c -4.38896,1.5588 -10.42078,2.9949 -14.14258,2.1426 -4.2428,-0.9716 -5.47875,-4.9193 -6.09766,-10.1933 -0.6189,-5.274 -0.61914,-11.8745 -0.61914,-21.6563 0,-9.7818 -0.001,-22.7436 -1.20898,-32.5547 -1.20778,-9.811 -3.62266,-16.4712 -7.54102,-22.9531 -3.91836,-6.4819 -9.33942,-12.78592 -16.70508,-17.0879 -7.36566,-4.30198 -16.67584,-6.59938 -25.63281,-6.95312 -8.95697,-0.35376 -17.5606,1.23698 -24.7793,3.88867 -6.53993,2.40234 -11.9402,5.68327 -16.82031,11.29495 V 923 Z"
         transform="matrix(0.26458333,0,0,0.26458333,-114.74834,-345.80185)" />
      <path
         id="rect3220-6"
         style="fill:#e9521f;fill-opacity:1;fill-rule:evenodd;stroke:none;stroke-width:10;stroke-linecap:round;stroke-linejoin:round;stroke-miterlimit:4;stroke-dasharray:none;stroke-opacity:1;paint-order:stroke fill markers;stop-color:#000000"
         d="m 76.408418,-101.59144 v 53.908857 h 8.929688 v -12.909285 c 0,-2.89941 1.95e-4,-3.693028 0.08062,-5.344372 0.08042,-1.65137 0.240884,-4.160387 1.249018,-5.999638 1.008134,-1.839251 2.86357,-3.008577 4.555278,-3.569812 1.691707,-0.561234 3.219786,-0.514429 4.529439,-0.210317 1.309651,0.304086 2.400554,0.865293 3.211174,1.909948 0.810617,1.044681 1.340735,2.572914 1.582335,4.054025 0.24159,1.481111 0.19494,2.915364 0.17156,5.059124 -0.0234,2.14376 -0.0233,4.996868 -0.0233,6.96132 0,1.964452 -2.6e-4,3.03993 0.31161,4.349618 0.31189,1.309661 0.9355,2.853213 2.44791,4.123769 1.51242,1.270555 3.91365,2.268088 6.36913,2.283592 2.00436,0.0127 4.03607,-0.62775 5.5578,-1.198906 v -7.217648 c -1.16125,0.412432 -2.75717,0.7924 -3.7419,0.566896 -1.12257,-0.257069 -1.44958,-1.301565 -1.61333,-2.696977 -0.16376,-1.395413 -0.16382,-3.141795 -0.16382,-5.729896 0,-2.588102 -2.6e-4,-6.017578 -0.31987,-8.613431 -0.31956,-2.595827 -0.9585,-4.358005 -1.99523,-6.073008 -1.03674,-1.715003 -2.47106,-3.382941 -4.41989,-4.521173 -1.94883,-1.138233 -4.412145,-1.746086 -6.78201,-1.83968 -2.369865,-0.0936 -4.646242,0.327284 -6.556189,1.028877 -1.730357,0.635619 -3.159178,1.503699 -4.450374,2.988456 v -21.310339 z" />
      <path
         id="path3250"
         style="fill:#e9521f;fill-opacity:1;stroke:none;stroke-width:0.999999px;stroke-linecap:butt;stroke-linejoin:miter;stroke-opacity:1"
         d="m 607.63281,932.03906 c -7.54617,-0.0822 -15.26265,1.36783 -22.88281,4.79492 -8.70876,3.91669 -17.29076,10.41493 -22.54102,16.89454 -5.25025,6.47961 -8.14025,12.58509 -9.64023,19.31441 -1.49999,6.72933 -1.61021,14.08248 1.82773,23.54105 1.9796,5.44632 5.46943,11.71442 10.8125,19.24412 -4.17154,2.4181 -8.7083,5.5842 -12.91796,9.7344 -7.37535,7.2711 -13.70773,17.4794 -16.72852,30.1465 -3.02079,12.6671 -2.72905,27.7922 2.89648,39.7715 5.62554,11.9792 16.58319,20.812 29.0625,26.8535 12.47931,6.0414 26.47932,9.2912 40.5625,8.416 14.08319,-0.8752 28.24947,-5.875 38.35352,-11.0625 3.95589,-2.031 7.26579,-4.0819 9.9375,-5.9141 L 669,1126.75 h 45.53125 l -37.94336,-37.3574 -0.33203,-0.2559 c 2.46084,-5.0546 4.71005,-12.4383 5.95312,-19.5937 1.54179,-8.8749 1.54102,-17.3333 1.54102,-25.3125 V 1024.75 h -29.00391 c -0.004,7.8282 -0.0482,18.7176 -0.64257,27 -0.37901,5.281 -0.98906,9.4273 -1.91797,13.0469 -11.39283,-11.3217 -24.76005,-24.5834 -35.16016,-34.9024 -14.18543,-14.0748 -20.78675,-20.6461 -25.48633,-26.789 -4.69958,-6.143 -7.49718,-11.85847 -7.74804,-17.67777 -0.25087,-5.81929 2.04591,-11.74198 5.2871,-15.86718 3.24121,-4.12521 7.42486,-6.45095 12.375,-7.37891 4.95016,-0.92796 10.66593,-0.45679 15.25977,1.33008 4.59385,1.78687 8.06536,4.888 9.80078,9.60547 1.03418,2.81125 1.44612,6.18616 1.61524,9.13281 h 32.19531 c 0.1067,-1.32428 0.15057,-2.68076 0.11328,-4.0625 -0.22884,-8.47894 -3.27117,-17.76925 -7.8125,-24.64453 -4.54133,-6.87528 -10.58135,-11.33305 -17.74805,-14.8125 -7.16669,-3.47945 -15.45872,-5.98085 -24.02148,-6.56445 -1.07035,-0.0729 -2.14463,-0.11521 -3.22266,-0.12696 z M 582.2832,1037.1035 c 14.26571,16.3722 33.65722,36.4805 44.44727,47.668 3.05106,3.1634 5.32232,5.5161 7.17383,7.418 -2.0252,1.5568 -4.31908,2.9434 -7.1543,4.1445 -5.99968,2.5416 -14.37447,4.2901 -23.22852,4.207 -8.85405,-0.083 -18.18657,-1.9998 -24.66601,-5.541 -6.47945,-3.5412 -10.10437,-8.7062 -11.89649,-15.4355 -1.79211,-6.7294 -1.74999,-15.0223 1.1875,-22.3145 2.9375,-7.2922 13.6775,-19.5659 14.13672,-20.1465 z"
         transform="matrix(0.26458333,0,0,0.26458333,-114.74834,-345.80185)" />
    </g>
    <g
       id="_xD83C__xDFA8_-Color-Background"
       transform="matrix(0.26458333,0,0,0.26458333,-80.45834,-140.97466)">
</g>
  </g>
  <style
     type="text/css"
     id="style3265">
	.st0{fill-rule:evenodd;clip-rule:evenodd;fill:#999999;}
	.st1{fill-rule:evenodd;clip-rule:evenodd;fill:#FF9000;}
</style>
</svg>
