<?xml version="1.0" encoding="utf-8"?>
<!-- Generator: Adobe Illustrator 16.0.3, SVG Export Plug-In . SVG Version: 6.00 Build 0)  -->
<!DOCTYPE svg PUBLIC "-//W3C//DTD SVG 1.1//EN" "http://www.w3.org/Graphics/SVG/1.1/DTD/svg11.dtd">
<svg version="1.1" id="_x39_cec9e3f-7b13-4aac-8df9-d56574d1d927"
	 xmlns="http://www.w3.org/2000/svg" xmlns:xlink="http://www.w3.org/1999/xlink" x="0px" y="0px" width="3816.146px"
	 height="1518.858px" viewBox="86.742 86.425 3816.146 1518.858" enable-background="new 86.742 86.425 3816.146 1518.858"
	 xml:space="preserve">
<g>
	<path fill="#FB1519" d="M3754.444,95.819h-0.98c-73.651,0-139.299,46.442-163.817,115.892l-282.652,799.813l-282.543-799.813
		c-24.52-69.45-90.167-115.892-163.817-115.892H1706.499c-86.375,0-156.521,70.145-156.521,156.629v0.545
		c0,86.444,70.077,156.521,156.521,156.521l0,0h372.839v1029.745c0,86.443,70.077,156.521,156.521,156.521c0.036,0,0.073,0,0.109,0
		l0,0c86.101,0,155.916-69.767,155.976-155.866V409.513h369.68l381.879,1079.849c54.57,154.561,273.285,154.561,327.964,0
		l422.835-1195.96C3928.392,197.007,3856.722,95.819,3754.444,95.819z"/>
</g>
<title>TVN2020</title>
<path fill-rule="evenodd" clip-rule="evenodd" fill="#FB1519" d="M547.547,339.886c27.166-37.498,48.603-73.446,76.087-103.938
	C741.337,105.385,895.585,76.767,1060.86,88.993c54.137,4,109.653,16.156,160.323,35.586
	c187.366,71.839,269.025,224.131,298.99,411.41c6.958,43.506,8.526,88.193,8.895,132.366c1.45,173.226,2.084,346.467,1.595,519.702
	c-0.166,59.479,14.203,108.62,63.687,148.348c52.222,41.925,64.526,101.857,44.679,164.518
	c-19.93,62.936-78.197,99.798-149.927,102.096c-132.507,4.244-244.423-75.729-278.851-203.778
	c-11.724-43.595-19.018-89.705-19.521-134.761c-2.024-181.272-0.642-362.585-0.431-543.87
	c0.095-78.698-8.198-155.419-48.807-225.392c-33.665-58.007-83.806-93.215-148.305-108.591
	C811.59,343.333,652.319,441.5,609.872,626.204c-11.928,51.892-17.868,106.236-18.217,159.513
	c-1.405,212.157,0.469,424.338,1.161,636.501c0.307,94.185-75.131,172.417-169.18,175.352
	c-89.68,2.805-165.668-68.625-170.581-163.077c-2.436-46.866-0.354-93.97-0.284-140.972c0.374-253.812,0.768-507.623,1.114-761.436
	c0.025-16.116-0.366-32.232-0.457-48.34c-0.298-54.487-21.464-95.379-73.118-119.101c-42.407-19.476-78.37-45.039-89.873-95.819
	c-17.221-76.06,27.178-152.591,103.273-168.983c72.501-15.62,145.754-13.115,213.684,16.329
	C480.62,147.906,548.476,206.984,547.547,339.886z"/>
</svg>
